# xmcd
#
# Track frame offsets:
#	150
#	10363
#	32580
#	49532
#	61876
#	74993
#	88350
#	103307
#	119967
#	139873
#	155398
#	176745
#	200391
#	221596
#	243090
#	253397
#	276586
#	288090
#	300275
#	310519
#
# Disc length: 4340 seconds
#
# Revision: 0
# Processed by: cddbd v1.5.2PL0 Copyright (c) Steve Scherf et al.
# Submitted via: audiograbber 1.83.01
#
DISCID=3310f214
DTITLE=Various Artist - Sweet Home Alabama CD 2
DYEAR=2010
DGENRE=Country Rock
TTITLE0=Dave Dudley - Six Days On The Road
TTITLE1=The Rock Heroes - All Summer Long
TTITLE2=Charlie Dore - Pilot Of The Airwaves
TTITLE3=Johnny Paycheck - Take This Job
TTITLE4=Lynn Anderson - Rose Garden
TTITLE5=Uncle Daddy - Southern Man
TTITLE6=Canned Heat - On The Road Again
TTITLE7=Rick Derringer - Rock'n'Roll Hoochie Coo
TTITLE8=Rickie Meadlocke - Seasons
TTITLE9=Ferlin Husky - Phantom 309
TTITLE10=Atlanta Rhythm - Taking Care Of
TTITLE11=Molly Hatchet - Flirtin' With Desaster
TTITLE12=Walter Strout - Gimme Three Steps
TTITLE13=Blackfoot - Train, Train
TTITLE14=Faron Young - Hella Walls
TTITLE15=Moe Bandy - Call Me The Breeze
TTITLE16=Merle Haggard - Okie Frum Muskogee
TTITLE17=Moe Bandy - Just Good Old Boys
TTITLE18=Waylon Jennings - White Lightnin'
TTITLE19=Kenny Rogers - Just Dropped In
EXTD=
EXTT0=
EXTT1=
EXTT2=
EXTT3=
EXTT4=
EXTT5=
EXTT6=
EXTT7=
EXTT8=
EXTT9=
EXTT10=
EXTT11=
EXTT12=
EXTT13=
EXTT14=
EXTT15=
EXTT16=
EXTT17=
EXTT18=
EXTT19=
PLAYORDER=
